DataType=double
version=3
OpenSimVersion=4.5-2024-01-10-34fd6af
endheader
time	pelvis_tilt	pelvis_list	pelvis_rotation	pelvis_tx	pelvis_ty	pelvis_tz	hip_flexion_r	hip_adduction_r	hip_rotation_r	knee_angle_r	knee_adduction_r	knee_angle_r_beta	ankle_angle_r	subtalar_angle_r	mtp_angle_r	hip_flexion_l	hip_adduction_l	hip_rotation_l	knee_angle_l	knee_adduction_l	knee_angle_l_beta	ankle_angle_l	subtalar_angle_l	mtp_angle_l	lumbar_extension	lumbar_bending	lumbar_rotation	arm_flex_r	arm_add_r	arm_rot_r	elbow_flex_r	pro_sup_r	wrist_flex_r	wrist_dev_r	arm_flex_l	arm_add_l	arm_rot_l	elbow_flex_l	pro_sup_l	wrist_flex_l	wrist_dev_l
3.02	-0.1345510381157574	0.03591099285510675	-0.07471346789086888	0.8238685563440956	0.9689962876272151	0.4679119726601737	0.5006984952973033	-0.05882068175190807	0.0275159224914882	1.164246138076123	0.1091	1.164246138076123	-0.09075536762539299	-0.06948120592020274	-0.2259712374104029	0.2929006961111567	0.02020684604291723	-0.1019810563390929	0.3339574254397575	0.1123	0.3339574254397575	0.08263906818986851	-0.006635256792790797	-0.1396225142468251	-0.03661308013976169	0.02091799559021381	0.04138977270297369	-0.0538576738878271	-0.2120699885218757	-0.1889277098592464	0.6082201871056463	1.57079633	0	0	-0.07207651572498776	-0.2590271031328927	0.0380852014131022	0.6414609283214157	1.57079633	0	0
3.025	-0.1358601808917609	0.03467837319223483	-0.07415792703691339	0.8233738520255841	0.9694296222043789	0.4677723989944464	0.5113179639847112	-0.05654016451104456	0.02557127218896273	1.153518977862434	0.1091	1.153518977862434	-0.07733241048119595	-0.06783519451855519	-0.227697239343981	0.2861764772299593	0.01931631147908371	-0.1015501700820464	0.3308327098481904	0.1123	0.3308327098481904	0.08503681190196932	-0.00407065302214964	-0.1402998340227523	-0.03520346296845696	0.02359690202096093	0.03979116702357927	-0.0579929575532531	-0.2115960372835405	-0.1894816237248784	0.6025092651529709	1.57079633	0	0	-0.06729407293703843	-0.2614541853448019	0.03728728829778639	0.6493168870911703	1.57079633	0	0
3.03	-0.1371147014025382	0.03353682753915633	-0.07348578113844122	0.822875587779929	0.9698446060534194	0.4676418491410257	0.5214247222172228	-0.05449857070064117	0.02334154602494218	1.141434077314674	0.1091	1.141434077314674	-0.06492701137704679	-0.0670247910934178	-0.2291726924922715	0.2793813140537417	0.01853244277379631	-0.1010486921177806	0.3276138173106944	0.1123	0.3276138173106944	0.08730112182189148	-0.001519571469617464	-0.14112950943648	-0.0338590816764783	0.02610336266423217	0.03817792063034132	-0.06216286493757182	-0.211112327304367	-0.1901062947003647	0.5970108947433108	1.57079633	0	0	-0.06258263421526034	-0.2639717066206249	0.03646255351888503	0.6575163589885809	1.57079633	0	0
3.035	-0.1383041952734	0.03249250826598615	-0.07271912983406123	0.8223741572928367	0.9702405595068403	0.4675207763572885	0.530999573467577	-0.05269886073514621	0.0208754963991221	1.127998046975258	0.1091	1.127998046975258	-0.05359056693814961	-0.06702376314629796	-0.2303512572105198	0.2725036151213679	0.01785772966519579	-0.1004856800647048	0.3242994823706395	0.1123	0.3242994823706395	0.08944532669980232	0.001003658012268243	-0.1420992350451828	-0.03259314246214531	0.02842793578719262	0.03656552811336458	-0.06635024518284539	-0.2106168239321805	-0.1908029221716239	0.5917197610343204	1.57079633	0	0	-0.0579469897565347	-0.26657438651281	0.03561729033021171	0.666056532953893	1.57079633	0	0
3.04	-0.1394205505665652	0.03155007933012031	-0.07187958562952763	0.8218699011406064	0.970616654194196	0.4674096832716521	0.5400246686554243	-0.05114059030779956	0.01822150250037314	1.113213636833212	0.1091	1.113213636833212	-0.04335456990621644	-0.06778908469885606	-0.2312014281875581	0.2655342665590269	0.01729315481961144	-0.09987027091091903	0.3208884592369919	0.1123	0.3208884592369919	0.09148145380992639	0.003485232761041877	-0.1431968628916644	-0.03141612720794535	0.03056347496837301	0.03496871002732917	-0.07053880625247486	-0.2101078177629247	-0.1915724364571319	0.5866302056293966	1.57079633	0	0	-0.05339144280731149	-0.2692562335145678	0.03475742880029029	0.6749315973462732	1.57079633	0	0
3.045	-0.1404579734997606	0.03071293046961758	-0.07098777004833798	0.8213631123372979	0.9709719014818649	0.46730912096375	0.5484839787605553	-0.04982040919848508	0.01542686775654727	1.097080957860015	0.1091	1.097080957860015	-0.0342315677542233	-0.06926287848667179	-0.2317055369627194	0.2584668243799332	0.01683849894009588	-0.09921142084337881	0.3173799097750486	0.1123	0.3173799097750486	0.0934202571787604	0.005912182012487199	-0.144410695771393	-0.03033572516938061	0.03250482802477474	0.03340119760511898	-0.07471334024527204	-0.2095838545817361	-0.1924154354157687	0.5817363194949459	1.57079633	0	0	-0.04891969503666237	-0.2720107910550342	0.03388860794537392	0.6841328653256209	1.57079633	0	0
3.05	-0.1414129537407635	0.02998342040028978	-0.07006286820106336	0.8208540429761768	0.9713051454189344	0.4672196892106428	0.5563637804509912	-0.04873259967528001	0.01253719768132783	1.079598933025538	0.1091	1.079598933025538	-0.02621630178339135	-0.07137445923960972	-0.2318584439065124	0.2512976209657369	0.01649265931995512	-0.09851768809026676	0.3137737891419767	0.1123	0.3137737891419767	0.09527126741145499	0.008272668413209443	-0.1457298152792291	-0.02935683643439677	0.03424849474624697	0.03187555092961139	-0.07885989629901613	-0.2090436617380644	-0.1933321152632977	0.577032042999274	1.57079633	0	0	-0.04453475721917582	-0.2748313776033442	0.03301624486406278	0.6936489456598941	1.57079633	0	0
3.055	-0.1422841754455741	0.02936313978004056	-0.06912225513376083	0.8203429124024039	0.9716150599855066	0.4671420369245044	0.5636531440481544	-0.04786963529911678	0.009595863499792467	1.060766941506777	0.1091	1.060766941506777	-0.01928699745423739	-0.07404240701988533	-0.231666013675491	0.2440257903377691	0.01625397140864783	-0.09779706930947085	0.3100712241666359	0.1123	0.3100712241666359	0.09704285635332159	0.01055627354582287	-0.1471444322503716	-0.02848164017126632	0.03579226082932833	0.03040301574334165	-0.08296590415268593	-0.2084860786907201	-0.1943221996969945	0.5725112777593115	1.57079633	0	0	-0.04023888645278594	-0.2777113049285114	0.03214559731326294	0.7034659371203761	1.57079633	0	0
3.06	-0.1430723805386672	0.02885318208043241	-0.06818120264985317	0.8198299174449978	0.9719001506687477	0.4670768617745121	0.5703444097057063	-0.04722274018313871	0.006643550905432345	1.040586611906002	0.1091	1.040586611906002	-0.01340677698767814	-0.0771766093347535	-0.2311434653472956	0.2366532171945886	0.01612052142317086	-0.0970568945186127	0.3062748779625332	0.1123	0.3062748779625332	0.09874231084301761	0.01275425615232585	-0.1486462445407016	-0.02770971926442482	0.03713482802454229	0.02899342290364999	-0.08702025326578598	-0.2079099991159341	-0.195384872049411	0.568168009719493	1.57079633	0	0	-0.03603355166153909	-0.280644060279667	0.03128181663231844	0.713567632416254	1.57079633	0	0
3.065	-0.1437801910526078	0.02845440925709946	-0.06725267054681139	0.8193152451373346	0.9721587604462871	0.4670249081270439	0.5764336357205477	-0.04678242902299712	0.003717888950515835	1.019063714245527	0.1091	1.019063714245527	-0.008525165231644757	-0.08068022293952401	-0.2303136802632146	0.2291844159285749	0.01609043765874282	-0.09630378045621302	0.3023892938907592	0.1123	0.3023892938907592	0.1003759111582638	0.01485977340031938	-0.1502287853963319	-0.02703823224859228	0.03827546098481028	0.02765513237719723	-0.09101333249283772	-0.2073143305501102	-0.1965187149473095	0.5639964393923658	1.57079633	0	0	-0.03191942921706155	-0.283623441235334	0.03042998829774755	0.723935722010067	1.57079633	0	0
3.07	-0.1444118980814883	0.0281676994172074	-0.06634718213869097	0.8187990880476879	0.9723890801160102	0.4669869627623596	0.5819210030126443	-0.04653900937507899	0.0008531519402307647	0.9962100963134324	0.1091	0.9962100963134324	-0.004579660278720288	-0.08445152026453498	-0.2292055392641034	0.2216263482996053	0.01616214891524245	-0.09554363841677881	0.2984212127288379	0.1123	0.2984212127288379	0.1019490112442517	0.01686805717607919	-0.1518877449961852	-0.02646212307462071	0.03921366946056989	0.02639502135267148	-0.09493703458101398	-0.2066979753506634	-0.197721660669786	0.5599911146137269	1.57079633	0	0	-0.02789642912188283	-0.2866436358442951	0.02959515767912219	0.7345499875199523	1.57079633	0	0
3.075	-0.1449732260563362	0.02799416420297372	-0.06547278066207667	0.818281661926385	0.9725891627555826	0.4669638482891102	0.5868111611356401	-0.04648302866412541	-0.001919973844451202	0.972045606416974	0.1091	0.972045606416974	-0.001497342374292688	-0.08838560028200251	-0.2278523479085105	0.2139881913955448	0.01633459895751362	-0.09478172969688629	0.2943798577146153	0.1123	0.2943798577146153	0.1034661190347523	0.01877653907985033	-0.1536212483127121	-0.02597435900859395	0.03994894176993431	0.02521851422883023	-0.09878472923595219	-0.2060598341801875	-0.1989909537231278	0.5561470620411668	1.57079633	0	0	-0.02396374959013644	-0.2896992451522945	0.02878233891222209	0.7453884727365673	1.57079633	0	0
3.08	-0.1454710819530003	0.02793532290694611	-0.06463506043884645	0.8177632250156571	0.9727569421250224	0.4669564146453646	0.5911135020058932	-0.04660564834538369	-0.004574568077444482	0.946599940670906	0.1091	0.946599940670906	0.0008035010980131053	-0.09237595859133878	-0.2262903942598686	0.2062810695802941	0.01660740490993816	-0.0940227591787297	0.2902771822620961	0.1123	0.2902771822620961	0.1049309759153829	0.02058491970876039	-0.1554300745632824	-0.02556618737039279	0.04048054374459763	0.02412965124083264	-0.1025512086119273	-0.2053988308297137	-0.2003231261701044	0.5524599136658863	1.57079633	0	0	-0.02011995562509158	-0.2927852497236511	0.02799650551783107	0.756427623558111	1.57079633	0	0
3.085	-0.1459132989786999	0.02799321864998518	-0.063837264361565	0.8172440981543367	0.9728902550584414	0.4669655293724295	0.5948423470767792	-0.04689892710863891	-0.007087610087953854	0.9199143489877097	0.1091	0.9199143489877097	0.002411750701288072	-0.0963159256210457	-0.2245576697771132	0.198517764571989	0.01698094552904568	-0.09327099531636576	0.2861280748188131	0.1123	0.2861280748188131	0.1063466347737279	0.022295180041529	-0.1573178071190555	-0.02522740334640739	0.04080739692832731	0.02313119184970177	-0.1062326094081783	-0.2047139555929126	-0.2017139865455304	0.5489260230081106	1.57079633	0	0	-0.01636307676185805	-0.2958969256537417	0.02724256270906394	0.7676423982493454	1.57079633	0	0
3.09	-0.1463083833779375	0.02817046114915472	-0.06308043748440256	0.8167246847495684	0.9729868681676554	0.4669920673875734	0.5980170329624284	-0.04735599580109508	-0.009440080276921281	0.892043131549038	0.1091	0.892043131549038	0.003421839624585088	-0.1000999937289353	-0.2226927706117349	0.1907124170177769	0.01745636450724344	-0.09253040354637514	0.281950514934026	0.1123	0.281950514934026	0.1077155362286532	0.0239115352017952	-0.1592909069352887	-0.02494662313108846	0.04092804903971735	0.02222474789968645	-0.1098263159158219	-0.2040043237245391	-0.2031586242497838	0.5455425635571012	1.57079633	0	0	-0.01269072036165836	-0.2990297185017715	0.02652530311573529	0.7790063620207158	1.57079633	0	0
3.095	-0.1466652720825986	0.02847018244877949	-0.06236362535458915	0.8162054897583249	0.9730445093284328	0.4670369008118651	0.600661881320269	-0.04797111032209744	-0.01161704010957284	0.8630548582494995	0.1091	0.8630548582494995	0.003932151729374422	-0.103625062229646	-0.2207339847054569	0.1828802318241038	0.01803547613262882	-0.0918047802551336	0.2777656738989333	0.1123	0.2777656738989333	0.1090395823690551	0.02544033322309192	-0.1613587063674969	-0.02471155777999235	0.04084074676483718	0.02141093980227764	-0.1133308485494613	-0.2032692453693432	-0.2046514320786982	0.5423076009635784	1.57079633	0	0	-0.009100198398712456	-0.3021790856621755	0.02584934947108291	0.7904917887639232	1.57079633	0	0
3.1	-0.146993108398032	0.02889589697483248	-0.06168410519366471	0.8156871369473814	0.9730609043602824	0.4671008891454113	0.6028060420387855	-0.04873957529232177	-0.01360769820019646	0.8330332482622146	0.1091	0.8330332482622146	0.004043432934800607	-0.1067916330337965	-0.2187185595726209	0.1750371985063976	0.01872056617484694	-0.09109787559250795	0.2735979521776719	0.1123	0.2735979521776719	0.1103202066334443	0.02688990322967907	-0.163533323222867	-0.02450928302961611	0.04054361535764543	0.02068956725279079	-0.1167457425945455	-0.202508303278727	-0.206186149380607	0.5392201312063726	1.57079633	0	0	-0.005588666552251209	-0.3053403191671411	0.02521908921854366	0.8020697947484123	1.57079633	0	0
